<svg id="visual" viewBox="0 0 900 600" width="900" height="600" xmlns="http://www.w3.org/2000/svg" xmlns:xlink="http://www.w3.org/1999/xlink" version="1.1"><rect x="0" y="0" width="900" height="600" fill="#E36414"></rect><path d="M0 501L18.8 503.3C37.7 505.7 75.3 510.3 112.8 511.5C150.3 512.7 187.7 510.3 225.2 509C262.7 507.7 300.3 507.3 337.8 508.3C375.3 509.3 412.7 511.7 450.2 507.8C487.7 504 525.3 494 562.8 491.7C600.3 489.3 637.7 494.7 675.2 503.3C712.7 512 750.3 524 787.8 522.5C825.3 521 862.7 506 881.3 498.5L900 491L900 601L881.3 601C862.7 601 825.3 601 787.8 601C750.3 601 712.7 601 675.2 601C637.7 601 600.3 601 562.8 601C525.3 601 487.7 601 450.2 601C412.7 601 375.3 601 337.8 601C300.3 601 262.7 601 225.2 601C187.7 601 150.3 601 112.8 601C75.3 601 37.7 601 18.8 601L0 601Z" fill="#9A031E" stroke-linecap="round" stroke-linejoin="miter"></path></svg>