<svg id="visual" viewBox="0 0 900 600" width="900" height="600" xmlns="http://www.w3.org/2000/svg" xmlns:xlink="http://www.w3.org/1999/xlink" version="1.1"><rect x="0" y="0" width="900" height="600" fill="#10000a"></rect><path d="M0 454L21.5 450.5C43 447 86 440 128.8 439.3C171.7 438.7 214.3 444.3 257.2 445.5C300 446.7 343 443.3 385.8 449.8C428.7 456.3 471.3 472.7 514.2 488C557 503.3 600 517.7 642.8 518.5C685.7 519.3 728.3 506.7 771.2 496.7C814 486.7 857 479.3 878.5 475.7L900 472L900 601L878.5 601C857 601 814 601 771.2 601C728.3 601 685.7 601 642.8 601C600 601 557 601 514.2 601C471.3 601 428.7 601 385.8 601C343 601 300 601 257.2 601C214.3 601 171.7 601 128.8 601C86 601 43 601 21.5 601L0 601Z" fill="#9A031E" stroke-linecap="round" stroke-linejoin="miter"></path></svg>