<svg id="visual" viewBox="0 0 900 600" width="900" height="600" xmlns="http://www.w3.org/2000/svg" xmlns:xlink="http://www.w3.org/1999/xlink" version="1.1"><rect x="0" y="0" width="900" height="600" fill="#10000a"></rect><path d="M0 511L129 511L129 496L257 496L257 495L386 495L386 510L514 510L514 513L643 513L643 507L771 507L771 517L900 517L900 526L900 601L900 601L771 601L771 601L643 601L643 601L514 601L514 601L386 601L386 601L257 601L257 601L129 601L129 601L0 601Z" fill="#5f0f40"></path><path d="M0 535L129 535L129 526L257 526L257 541L386 541L386 536L514 536L514 537L643 537L643 522L771 522L771 525L900 525L900 526L900 601L900 601L771 601L771 601L643 601L643 601L514 601L514 601L386 601L386 601L257 601L257 601L129 601L129 601L0 601Z" fill="#71073c"></path><path d="M0 536L129 536L129 551L257 551L257 544L386 544L386 551L514 551L514 542L643 542L643 533L771 533L771 537L900 537L900 557L900 601L900 601L771 601L771 601L643 601L643 601L514 601L514 601L386 601L386 601L257 601L257 601L129 601L129 601L0 601Z" fill="#810035"></path><path d="M0 560L129 560L129 560L257 560L257 551L386 551L386 559L514 559L514 564L643 564L643 565L771 565L771 556L900 556L900 562L900 601L900 601L771 601L771 601L643 601L643 601L514 601L514 601L386 601L386 601L257 601L257 601L129 601L129 601L0 601Z" fill="#8f002b"></path><path d="M0 588L129 588L129 573L257 573L257 578L386 578L386 584L514 584L514 588L643 588L643 582L771 582L771 582L900 582L900 573L900 601L900 601L771 601L771 601L643 601L643 601L514 601L514 601L386 601L386 601L257 601L257 601L129 601L129 601L0 601Z" fill="#9a031e"></path></svg>