<svg id="visual" viewBox="0 0 900 600" width="900" height="600" xmlns="http://www.w3.org/2000/svg" xmlns:xlink="http://www.w3.org/1999/xlink" version="1.1"><rect x="0" y="0" width="900" height="600" fill="#0F4C5C"></rect><path d="M286 0L286.5 14.3C287 28.7 288 57.3 301.3 85.8C314.7 114.3 340.3 142.7 344.2 171.2C348 199.7 330 228.3 321.7 257C313.3 285.7 314.7 314.3 311.3 343C308 371.7 300 400.3 305.2 428.8C310.3 457.3 328.7 485.7 321.8 514.2C315 542.7 283 571.3 267 585.7L251 600L0 600L0 585.7C0 571.3 0 542.7 0 514.2C0 485.7 0 457.3 0 428.8C0 400.3 0 371.7 0 343C0 314.3 0 285.7 0 257C0 228.3 0 199.7 0 171.2C0 142.7 0 114.3 0 85.8C0 57.3 0 28.7 0 14.3L0 0Z" fill="#9a031e"></path><path d="M247 0L244.3 14.3C241.7 28.7 236.3 57.3 246.5 85.8C256.7 114.3 282.3 142.7 277.8 171.2C273.3 199.7 238.7 228.3 220 257C201.3 285.7 198.7 314.3 196.2 343C193.7 371.7 191.3 400.3 189 428.8C186.7 457.3 184.3 485.7 196.3 514.2C208.3 542.7 234.7 571.3 247.8 585.7L261 600L0 600L0 585.7C0 571.3 0 542.7 0 514.2C0 485.7 0 457.3 0 428.8C0 400.3 0 371.7 0 343C0 314.3 0 285.7 0 257C0 228.3 0 199.7 0 171.2C0 142.7 0 114.3 0 85.8C0 57.3 0 28.7 0 14.3L0 0Z" fill="#8f002b"></path><path d="M184 0L188.2 14.3C192.3 28.7 200.7 57.3 196.7 85.8C192.7 114.3 176.3 142.7 164 171.2C151.7 199.7 143.3 228.3 139.8 257C136.3 285.7 137.7 314.3 154.3 343C171 371.7 203 400.3 213.8 428.8C224.7 457.3 214.3 485.7 205.7 514.2C197 542.7 190 571.3 186.5 585.7L183 600L0 600L0 585.7C0 571.3 0 542.7 0 514.2C0 485.7 0 457.3 0 428.8C0 400.3 0 371.7 0 343C0 314.3 0 285.7 0 257C0 228.3 0 199.7 0 171.2C0 142.7 0 114.3 0 85.8C0 57.3 0 28.7 0 14.3L0 0Z" fill="#810035"></path><path d="M117 0L117.5 14.3C118 28.7 119 57.3 117.3 85.8C115.7 114.3 111.3 142.7 118.5 171.2C125.7 199.7 144.3 228.3 143.5 257C142.7 285.7 122.3 314.3 121.3 343C120.3 371.7 138.7 400.3 144.2 428.8C149.7 457.3 142.3 485.7 132 514.2C121.7 542.7 108.3 571.3 101.7 585.7L95 600L0 600L0 585.7C0 571.3 0 542.7 0 514.2C0 485.7 0 457.3 0 428.8C0 400.3 0 371.7 0 343C0 314.3 0 285.7 0 257C0 228.3 0 199.7 0 171.2C0 142.7 0 114.3 0 85.8C0 57.3 0 28.7 0 14.3L0 0Z" fill="#71073c"></path><path d="M113 0L102.7 14.3C92.3 28.7 71.7 57.3 70.7 85.8C69.7 114.3 88.3 142.7 90.5 171.2C92.7 199.7 78.3 228.3 73.2 257C68 285.7 72 314.3 67.8 343C63.7 371.7 51.3 400.3 45.8 428.8C40.3 457.3 41.7 485.7 53.7 514.2C65.7 542.7 88.3 571.3 99.7 585.7L111 600L0 600L0 585.7C0 571.3 0 542.7 0 514.2C0 485.7 0 457.3 0 428.8C0 400.3 0 371.7 0 343C0 314.3 0 285.7 0 257C0 228.3 0 199.7 0 171.2C0 142.7 0 114.3 0 85.8C0 57.3 0 28.7 0 14.3L0 0Z" fill="#5f0f40"></path></svg>