<svg id="visual" viewBox="0 0 900 600" width="900" height="600" xmlns="http://www.w3.org/2000/svg" xmlns:xlink="http://www.w3.org/1999/xlink" version="1.1"><rect x="0" y="0" width="900" height="600" fill="#E36414"></rect><path d="M282 0L292.7 14.3C303.3 28.7 324.7 57.3 327.5 85.8C330.3 114.3 314.7 142.7 311 171.2C307.3 199.7 315.7 228.3 324 257C332.3 285.7 340.7 314.3 347.8 343C355 371.7 361 400.3 362.2 428.8C363.3 457.3 359.7 485.7 337.5 514.2C315.3 542.7 274.7 571.3 254.3 585.7L234 600L0 600L0 585.7C0 571.3 0 542.7 0 514.2C0 485.7 0 457.3 0 428.8C0 400.3 0 371.7 0 343C0 314.3 0 285.7 0 257C0 228.3 0 199.7 0 171.2C0 142.7 0 114.3 0 85.8C0 57.3 0 28.7 0 14.3L0 0Z" fill="#9a031e"></path><path d="M237 0L243.8 14.3C250.7 28.7 264.3 57.3 259.8 85.8C255.3 114.3 232.7 142.7 224.5 171.2C216.3 199.7 222.7 228.3 221.8 257C221 285.7 213 314.3 221 343C229 371.7 253 400.3 264.7 428.8C276.3 457.3 275.7 485.7 277.7 514.2C279.7 542.7 284.3 571.3 286.7 585.7L289 600L0 600L0 585.7C0 571.3 0 542.7 0 514.2C0 485.7 0 457.3 0 428.8C0 400.3 0 371.7 0 343C0 314.3 0 285.7 0 257C0 228.3 0 199.7 0 171.2C0 142.7 0 114.3 0 85.8C0 57.3 0 28.7 0 14.3L0 0Z" fill="#8f002b"></path><path d="M189 0L187.5 14.3C186 28.7 183 57.3 184 85.8C185 114.3 190 142.7 199.5 171.2C209 199.7 223 228.3 215.3 257C207.7 285.7 178.3 314.3 170.2 343C162 371.7 175 400.3 186.5 428.8C198 457.3 208 485.7 208.7 514.2C209.3 542.7 200.7 571.3 196.3 585.7L192 600L0 600L0 585.7C0 571.3 0 542.7 0 514.2C0 485.7 0 457.3 0 428.8C0 400.3 0 371.7 0 343C0 314.3 0 285.7 0 257C0 228.3 0 199.7 0 171.2C0 142.7 0 114.3 0 85.8C0 57.3 0 28.7 0 14.3L0 0Z" fill="#810035"></path><path d="M122 0L127.7 14.3C133.3 28.7 144.7 57.3 140 85.8C135.3 114.3 114.7 142.7 107 171.2C99.3 199.7 104.7 228.3 105.7 257C106.7 285.7 103.3 314.3 113.8 343C124.3 371.7 148.7 400.3 155.3 428.8C162 457.3 151 485.7 145.2 514.2C139.3 542.7 138.7 571.3 138.3 585.7L138 600L0 600L0 585.7C0 571.3 0 542.7 0 514.2C0 485.7 0 457.3 0 428.8C0 400.3 0 371.7 0 343C0 314.3 0 285.7 0 257C0 228.3 0 199.7 0 171.2C0 142.7 0 114.3 0 85.8C0 57.3 0 28.7 0 14.3L0 0Z" fill="#71073c"></path><path d="M47 0L57.3 14.3C67.7 28.7 88.3 57.3 96.8 85.8C105.3 114.3 101.7 142.7 100 171.2C98.3 199.7 98.7 228.3 98.3 257C98 285.7 97 314.3 90.3 343C83.7 371.7 71.3 400.3 66.2 428.8C61 457.3 63 485.7 61.7 514.2C60.3 542.7 55.7 571.3 53.3 585.7L51 600L0 600L0 585.7C0 571.3 0 542.7 0 514.2C0 485.7 0 457.3 0 428.8C0 400.3 0 371.7 0 343C0 314.3 0 285.7 0 257C0 228.3 0 199.7 0 171.2C0 142.7 0 114.3 0 85.8C0 57.3 0 28.7 0 14.3L0 0Z" fill="#5f0f40"></path></svg>