<svg id="visual" viewBox="0 0 900 600" width="900" height="600" xmlns="http://www.w3.org/2000/svg" xmlns:xlink="http://www.w3.org/1999/xlink" version="1.1"><rect x="0" y="0" width="900" height="600" fill="#0F4C5C"></rect><path d="M0 568L21.5 569.3C43 570.7 86 573.3 128.8 573C171.7 572.7 214.3 569.3 257.2 566.7C300 564 343 562 385.8 563.8C428.7 565.7 471.3 571.3 514.2 575.2C557 579 600 581 642.8 579.2C685.7 577.3 728.3 571.7 771.2 571.3C814 571 857 576 878.5 578.5L900 581L900 601L878.5 601C857 601 814 601 771.2 601C728.3 601 685.7 601 642.8 601C600 601 557 601 514.2 601C471.3 601 428.7 601 385.8 601C343 601 300 601 257.2 601C214.3 601 171.7 601 128.8 601C86 601 43 601 21.5 601L0 601Z" fill="#0F4C5C" stroke-linecap="round" stroke-linejoin="miter"></path></svg>