<svg id="visual" viewBox="0 0 900 600" width="900" height="600" xmlns="http://www.w3.org/2000/svg" xmlns:xlink="http://www.w3.org/1999/xlink" version="1.1"><path d="M557 600L566 575C575 550 593 500 600.5 450C608 400 605 350 621.5 300C638 250 674 200 660.5 150C647 100 584 50 552.5 25L521 0L900 0L900 25C900 50 900 100 900 150C900 200 900 250 900 300C900 350 900 400 900 450C900 500 900 550 900 575L900 600Z" fill="#e36414"></path><path d="M440 600L458 575C476 550 512 500 515 450C518 400 488 350 495.5 300C503 250 548 200 539 150C530 100 467 50 435.5 25L404 0L522 0L553.5 25C585 50 648 100 661.5 150C675 200 639 250 622.5 300C606 350 609 400 601.5 450C594 500 576 550 567 575L558 600Z" fill="#d34e1a"></path><path d="M305 600L303.5 575C302 550 299 500 290 450C281 400 266 350 266 300C266 250 281 200 279.5 150C278 100 260 50 251 25L242 0L405 0L436.5 25C468 50 531 100 540 150C549 200 504 250 496.5 300C489 350 519 400 516 450C513 500 477 550 459 575L441 600Z" fill="#c1391d"></path><path d="M170 600L176 575C182 550 194 500 180.5 450C167 400 128 350 126.5 300C125 250 161 200 170 150C179 100 161 50 152 25L143 0L243 0L252 25C261 50 279 100 280.5 150C282 200 267 250 267 300C267 350 282 400 291 450C300 500 303 550 304.5 575L306 600Z" fill="#ae221e"></path><path d="M0 600L0 575C0 550 0 500 0 450C0 400 0 350 0 300C0 250 0 200 0 150C0 100 0 50 0 25L0 0L144 0L153 25C162 50 180 100 171 150C162 200 126 250 127.5 300C129 350 168 400 181.5 450C195 500 183 550 177 575L171 600Z" fill="#9a031e"></path></svg>