<svg width="1000.000000pt" height="1036.000000pt" viewBox="0 0 1000.000000 1036.000000" xmlns="http://www.w3.org/2000/svg">
  <g transform="translate(0.000000,1036.000000) scale(0.100000,-0.100000)" fill="#fefefe" stroke="none">
    <path d="M0 5180 l0 -5180 4171 0 4171 0 -4 12 c-5 14 -9 16 -118 66 -184 84
-432 255 -634 437 -49 44 -117 103 -151 130 -228 183 -712 639 -863 815 -26
30 -91 101 -144 158 -53 57 -123 142 -157 191 -33 48 -67 93 -76 101 -9 7 -50
56 -93 109 -42 53 -113 134 -157 181 -97 103 -191 226 -241 317 l-38 67 12
145 c7 80 15 169 18 197 l6 51 -107 92 c-109 93 -165 128 -242 151 l-42 13
-123 -55 c-68 -31 -130 -58 -139 -61 l-16 -5 -6 -306 -7 -307 -16 -87 c-19
-102 -29 -124 -80 -175 -43 -43 -39 -42 -199 -57 -66 -6 -156 -16 -200 -22
-163 -20 -290 4 -465 90 l-75 37 -28 40 c-15 22 -46 66 -68 99 -48 68 -83 149
-111 256 l-19 75 0 126 0 127 -22 6 c-12 3 -73 6 -136 6 l-114 0 -36 -22 c-20
-13 -68 -54 -107 -94 l-72 -70 -48 -84 c-26 -45 -79 -117 -117 -158 -38 -42
-90 -102 -115 -134 -25 -32 -50 -58 -57 -58 -7 0 -24 -9 -38 -20 -34 -27 -44
-26 -183 15 -65 19 -129 35 -143 35 -66 0 -317 102 -379 155 l-32 27 -21 70
-22 70 7 147 c4 80 16 219 27 309 l20 163 -16 50 c-9 27 -20 49 -25 49 -6 0
-126 137 -156 179 -2 2 -42 -11 -91 -29 -108 -39 -147 -52 -243 -80 -132 -39
-173 -49 -263 -61 l-87 -12 -68 11 c-37 7 -107 17 -157 23 l-90 11 -50 23
c-71 32 -94 62 -174 221 l-72 141 -9 57 -9 57 26 72 c58 164 172 357 297 502
28 33 58 68 65 78 l14 18 -64 239 -64 240 -15 0 c-9 0 -24 6 -35 14 -34 23
-142 38 -340 46 -318 13 -417 33 -446 88 l-14 25 3 221 c1 122 6 252 10 291
l7 69 62 44 62 43 174 63 c95 35 207 72 248 82 l74 17 36 28 35 28 12 114 c7
63 12 150 12 193 1 44 4 108 9 144 4 36 6 82 3 102 l-4 36 -55 23 c-31 12 -88
43 -127 69 l-71 47 -106 114 c-248 268 -257 331 -93 595 l69 111 52 46 52 45
78 6 c136 11 286 27 352 38 l64 11 85 -7 c48 -3 103 -9 123 -12 l38 -6 47 73
c26 41 80 115 120 166 l74 93 0 21 c0 11 -15 46 -34 78 -50 87 -78 164 -151
425 l-67 238 10 23 c49 107 493 366 668 390 l52 7 63 -17 c35 -10 127 -49 204
-87 l140 -71 65 -52 c36 -29 104 -90 153 -136 l87 -84 0 -37 0 -38 14 0 c7 0
33 9 57 19 24 11 61 23 82 26 l39 8 -5 21 c-3 11 -11 55 -17 96 l-11 75 3 309
3 308 35 30 c93 78 380 197 575 238 l100 21 192 6 191 6 26 -50 c14 -28 37
-92 51 -144 15 -52 41 -132 59 -179 19 -47 38 -108 44 -136 6 -29 41 -113 78
-188 l67 -137 51 -29 c51 -30 160 -60 214 -60 l30 0 80 113 c43 61 115 154
158 205 43 51 102 121 129 156 28 36 74 88 104 116 l54 53 53 -6 c29 -3 68
-10 86 -16 18 -5 80 -21 138 -36 58 -14 119 -30 135 -36 17 -6 91 -31 165 -56
74 -25 142 -51 150 -58 8 -7 29 -20 46 -28 l31 -16 13 -31 13 -31 -13 -57 c-7
-31 -28 -111 -47 -177 -20 -66 -39 -149 -43 -185 -10 -85 -39 -212 -51 -224
-5 -6 -9 -19 -9 -30 l0 -19 153 -148 152 -149 25 0 c36 0 207 37 260 56 25 8
69 20 99 26 31 5 72 20 93 31 l38 22 9 -14 9 -14 44 11 c88 23 197 31 306 23
6 -1 12 -8 12 -16 0 -8 13 -29 30 -47 117 -129 154 -172 207 -239 l60 -76 6
-47 7 -46 -10 -22 c-6 -13 -14 -30 -19 -38 -5 -8 -26 -51 -47 -95 l-38 -80
-111 -111 c-60 -61 -140 -135 -177 -163 -38 -29 -68 -58 -68 -63 0 -10 133
-271 237 -465 49 -93 34 -88 338 -108 l260 -17 28 -15 c16 -8 45 -41 66 -73
l38 -59 6 -50 c3 -27 18 -83 33 -123 39 -107 74 -227 81 -274 l5 -40 -17 -17
c-9 -9 -25 -17 -35 -17 -10 0 -51 -15 -92 -34 -40 -18 -120 -55 -178 -81 -58
-27 -123 -58 -145 -71 -22 -12 -51 -25 -65 -29 -13 -4 -47 -22 -75 -40 -27
-18 -71 -44 -97 -59 l-48 -27 0 -83 c0 -45 -9 -154 -20 -242 -11 -87 -20 -186
-20 -219 l0 -61 35 -13 c63 -22 398 -290 487 -389 l37 -41 7 -37 c13 -68 -9
-284 -36 -349 -4 -11 -15 -41 -25 -67 l-16 -47 -32 -17 -32 -16 -86 -5 c-88
-6 -239 7 -369 32 -41 8 -127 21 -190 29 l-115 15 -32 -37 -31 -37 -7 -47 -7
-47 28 -86 29 -87 44 7 c111 17 301 3 366 -26 22 -10 51 -19 65 -19 44 0 122
-46 215 -125 50 -42 115 -94 146 -115 31 -21 79 -68 107 -103 28 -36 72 -82
99 -103 80 -65 222 -206 261 -259 50 -68 308 -325 462 -460 206 -181 476 -468
668 -710 92 -115 184 -222 290 -336 171 -185 312 -387 312 -447 0 -13 -20 -74
-44 -136 -235 -601 -668 -1026 -1248 -1227 -54 -19 -98 -37 -98 -41 0 -5 356
-8 790 -8 l790 0 0 5180 0 5180 -5000 0 -5000 0 0 -5180z" />
    <path d="M3640 9864 c-14 -3 -50 -9 -80 -15 l-56 -11 -16 -56 c-62 -217 -77
-309 -83 -515 l-5 -178 -10 -19 c-5 -10 -10 -30 -10 -44 0 -36 -35 -69 -121
-115 l-77 -40 -61 -11 c-34 -6 -105 -24 -158 -41 -52 -16 -103 -29 -113 -29
-9 0 -34 -13 -55 -30 -51 -41 -50 -41 -162 53 -218 186 -427 328 -562 382
l-64 26 -23 -5 c-27 -7 -190 -159 -199 -185 -6 -20 16 -133 45 -231 l19 -65
84 -137 c46 -76 96 -149 110 -162 15 -14 27 -32 27 -40 0 -8 20 -56 45 -107
59 -121 58 -126 -30 -183 -51 -34 -145 -127 -220 -221 -40 -49 -109 -128 -154
-175 -44 -47 -81 -91 -81 -97 0 -30 -50 -11 -172 65 l-87 54 -93 14 c-107 16
-265 20 -386 9 l-82 -7 0 -11 c0 -5 -12 -26 -26 -44 -15 -19 -35 -58 -47 -86
-43 -111 -66 -183 -67 -203 l0 -21 118 -119 117 -119 125 -74 c69 -41 157 -96
196 -122 l72 -48 6 -24 6 -25 -16 -43 c-8 -24 -24 -109 -34 -189 -11 -80 -24
-174 -30 -210 -5 -36 -14 -137 -20 -225 -15 -222 -6 -208 -145 -225 -162 -20
-424 -95 -552 -158 l-51 -25 4 -51 c2 -28 6 -120 8 -205 3 -84 7 -155 9 -158
6 -6 301 -43 422 -53 110 -9 128 -12 347 -52 l117 -21 41 -106 c55 -140 135
-382 150 -453 l13 -56 -42 -59 c-22 -32 -57 -82 -77 -110 -20 -29 -42 -53 -49
-53 -11 0 -75 -72 -75 -85 0 -3 -11 -16 -24 -28 -23 -21 -205 -303 -227 -351
l-10 -22 59 -100 c32 -54 74 -123 93 -152 l34 -53 65 5 c36 2 94 13 130 24 36
11 106 32 155 46 50 13 180 58 290 99 l200 75 16 -12 c9 -6 58 -40 109 -76
197 -138 247 -172 317 -210 40 -22 79 -40 87 -40 8 0 22 -7 30 -16 l16 -15 0
-73 c0 -39 -4 -76 -9 -82 -9 -10 -22 -78 -51 -274 l-18 -125 8 -100 c4 -55 13
-127 20 -160 l13 -60 117 -58 116 -58 27 6 c14 4 33 18 42 31 8 13 44 59 78
101 35 43 96 126 135 185 40 58 96 133 125 166 l52 60 59 35 58 36 66 7 c78 8
329 -3 392 -18 25 -6 96 -13 157 -17 l113 -7 11 -11 c6 -6 13 -47 15 -91 12
-218 129 -449 308 -606 l66 -58 96 16 96 17 44 -7 43 -6 11 43 c7 24 16 57 21
73 5 16 9 177 9 358 l0 329 15 29 15 30 28 6 c15 4 110 47 212 97 102 49 213
100 248 113 l62 24 50 0 49 0 83 -69 c46 -39 119 -91 163 -117 44 -27 118 -76
165 -110 84 -61 147 -94 179 -94 9 0 92 76 185 169 l169 169 -6 44 c-10 69
-90 274 -166 425 -38 76 -72 150 -76 164 l-7 27 16 29 c47 92 193 264 350 411
l100 94 90 -7 c50 -3 188 -17 306 -31 118 -13 244 -24 281 -24 l68 0 10 52 c6
29 17 95 26 147 l16 94 -9 6 c-135 94 -478 425 -506 489 l-19 43 17 102 c30
176 35 227 45 424 l10 193 15 29 c16 31 62 62 135 91 25 10 111 48 191 85 80
37 179 80 220 97 41 16 92 36 113 45 l37 16 0 17 c0 10 -13 46 -29 81 -16 35
-36 91 -46 124 -9 33 -26 81 -38 107 l-20 47 -66 5 c-83 8 -175 21 -271 41
-41 9 -127 22 -190 31 -63 8 -122 17 -131 19 -25 8 -47 59 -215 495 -25 63
-51 130 -59 148 -20 43 -20 45 14 117 l30 62 67 56 c36 30 78 73 93 94 14 22
63 85 109 141 97 119 95 105 29 201 -29 42 -70 104 -91 139 l-37 62 -57 -6
c-131 -13 -274 -37 -377 -64 -60 -16 -146 -33 -190 -38 l-80 -10 -57 8 -57 8
-53 29 -53 28 -85 86 c-187 188 -268 297 -241 324 10 11 48 174 81 355 12 63
26 135 33 160 6 25 11 63 11 84 l1 40 -33 19 c-45 27 -149 63 -265 92 l-99 25
-41 -31 c-23 -16 -61 -42 -83 -57 l-42 -27 -83 -119 c-230 -326 -261 -346
-548 -346 l-93 0 -62 16 c-33 9 -87 30 -119 46 l-58 31 -59 63 -59 64 -35 72
c-19 40 -39 93 -46 118 -6 25 -57 143 -113 262 l-102 217 -95 -1 c-52 0 -106
-2 -120 -4z m848 -1159 c1246 -181 2167 -1162 2273 -2422 l12 -138 -7 -135
c-97 -2142 -2510 -3282 -4221 -1996 l-120 91 -131 130 c-454 451 -718 1015
-775 1655 l-12 135 6 165 c58 1546 1464 2735 2975 2515z" />
    <path d="M3955 8600 c-890 -64 -1670 -590 -2066 -1395 l-79 -160 -50 -152
c-51 -156 -90 -327 -112 -493 l-12 -95 0 -210 1 -210 17 -120 c162 -1124 1003
-1977 2118 -2146 l143 -22 220 0 220 0 110 16 c1132 159 1988 1006 2156 2130
l21 142 0 200 c3 1477 -1218 2620 -2687 2515z m345 -394 c968 -131 1710 -865
1845 -1827 l16 -114 0 -156 c1 -1065 -789 -1965 -1847 -2104 l-115 -15 -154 0
-154 0 -116 15 c-929 122 -1656 832 -1822 1780 l-17 100 0 220 0 220 17 100
c183 1047 1045 1788 2087 1794 l155 1 105 -14z" />
    <path d="M3885 8094 c-399 -46 -677 -145 -970 -345 -449 -307 -747 -779 -841
-1334 l-18 -100 0 -210 0 -210 18 -100 c128 -753 631 -1349 1337 -1583 1197
-396 2451 386 2614 1631 l15 118 0 147 c-2 1160 -1036 2113 -2155 1986z" />
    <path d="M3168 9753 l-128 -55 0 -285 0 -284 16 -64 16 -65 33 0 32 0 70 46
71 46 5 221 4 222 22 80 21 80 -6 57 -7 58 -11 -1 c-6 0 -68 -25 -138 -56z" />
    <path d="M5134 9633 l-42 -4 -53 -57 c-112 -120 -339 -409 -339 -431 0 -15 25
-14 95 4 l60 15 33 38 c18 20 66 78 107 127 40 50 112 133 159 185 98 108 105
140 31 128 -5 -1 -29 -3 -51 -5z" />
    <path d="M1548 8973 l-48 -4 0 -17 c0 -10 16 -98 35 -196 l36 -178 38 -102
c34 -88 97 -235 105 -243 5 -5 198 -43 217 -43 l19 0 0 75 0 75 -23 38 c-113
181 -214 393 -241 507 l-21 90 -35 1 c-19 0 -56 -1 -82 -3z" />
    <path d="M1625 8152 c-55 -40 -255 -248 -255 -264 0 -8 15 -19 34 -26 18 -7
61 -30 95 -52 80 -52 78 -52 137 33 74 105 146 187 204 231 27 21 50 44 50 52
l0 13 -32 5 c-89 15 -146 25 -169 31 l-25 6 -39 -29z" />
    <path d="M465 7593 c-51 -105 -85 -191 -85 -215 0 -4 41 -8 90 -8 l91 0 -7 63
-6 62 36 99 c45 122 46 116 -13 116 l-49 0 -57 -117z" />
    <path d="M483 7293 l-43 -4 0 -11 c0 -18 108 -145 182 -213 l69 -63 97 -48
c100 -48 155 -84 183 -117 l16 -19 56 16 57 17 0 12 c0 7 -66 56 -147 108
l-148 94 -86 83 c-48 46 -98 99 -111 117 l-23 35 -30 -2 c-16 -1 -49 -3 -72
-5z" />
    <path d="M975 6758 c-2 -7 -14 -136 -26 -286 l-23 -273 12 -8 c15 -9 143 -34
148 -28 7 6 24 576 18 592 l-6 15 -59 0 -60 0 -4 -12z" />
    <path d="M865 6141 c-6 -5 -73 -30 -150 -56 -77 -26 -165 -57 -195 -70 -30
-13 -82 -33 -115 -46 -33 -12 -67 -28 -76 -36 -8 -7 -21 -13 -27 -13 -23 0
-12 -28 14 -34 l25 -7 77 30 c144 55 415 145 530 177 l62 17 0 12 0 12 -51 11
c-61 14 -82 15 -94 3z" />
    <path d="M187 5835 c-4 -8 -9 -106 -13 -218 l-7 -204 89 -16 c107 -20 98 -30
83 94 -6 56 -9 148 -7 205 l5 102 -41 17 c-99 41 -101 42 -109 20z" />
    <path d="M1060 5145 c0 -26 138 -394 164 -439 l25 -43 83 -27 c82 -26 118 -32
118 -20 0 3 -32 103 -70 223 -39 119 -73 233 -77 254 l-6 37 -36 0 c-20 0 -52
4 -71 9 -19 5 -56 12 -82 15 l-48 6 0 -15z" />
    <path d="M1123 4535 c-23 -20 -52 -52 -64 -73 -13 -20 -35 -53 -49 -72 -14
-19 -46 -62 -71 -95 -57 -76 -90 -133 -123 -214 -43 -107 -40 -111 88 -111
l82 0 28 58 c42 86 229 364 268 397 18 17 44 37 57 46 l25 15 -6 15 -6 15 -82
27 c-102 34 -98 34 -147 -8z" />
    <path d="M830 3896 c0 -8 27 -71 60 -140 l60 -126 55 0 c65 0 64 -2 23 86
l-32 68 -4 53 -4 53 -22 5 c-11 2 -47 7 -78 10 l-58 6 0 -15z" />
    <path d="M2100 3719 c0 -5 26 -42 58 -82 96 -121 112 -151 135 -264 3 -13 2
-23 -3 -23 -14 0 -31 -218 -33 -416 l-1 -199 15 -30 14 -29 40 -8 c22 -4 66
-20 98 -35 l57 -27 17 16 16 17 -13 120 -13 120 6 63 c16 160 30 260 48 347
10 51 19 101 19 111 l0 19 -22 7 c-13 4 -34 15 -48 24 -14 10 -57 38 -95 63
-39 25 -116 84 -173 131 -100 84 -122 97 -122 75z" />
    <path d="M3854 2985 c-38 -99 77 -495 172 -590 l33 -33 80 -31 80 -31 51 0 50
0 0 12 c0 6 -10 25 -23 42 -20 27 -128 227 -189 350 -25 49 -48 156 -48 222
l0 51 -72 7 c-40 3 -85 9 -100 12 l-28 6 -6 -17z" />
  </g>
  <g transform="translate(0.000000,1036.000000) scale(0.100000,-0.100000)" fill="#000000" stroke="none">
    <path d="M3600 10039 c-229 -29 -568 -156 -692 -259 l-33 -28 -3 -325 -3 -326
14 -80 14 -81 -16 0 c-15 -1 -90 -25 -133 -45 l-18 -7 0 38 0 39 -87 84 c-49
46 -117 107 -153 136 l-65 52 -140 71 c-77 38 -169 78 -204 87 l-65 17 -59 -7
c-153 -17 -307 -92 -519 -254 -201 -152 -191 -107 -98 -435 74 -261 94 -316
147 -408 43 -73 45 -64 -41 -171 -40 -51 -94 -125 -120 -166 l-47 -73 -23 6
c-13 3 -68 9 -123 12 l-100 7 -64 -11 c-66 -11 -215 -27 -352 -38 l-78 -6 -52
-45 -52 -46 -63 -101 c-76 -121 -97 -167 -111 -239 l-10 -54 13 -57 c17 -72
45 -111 186 -265 l115 -125 71 -46 c39 -26 96 -57 127 -69 l56 -23 3 -31 c2
-18 0 -57 -4 -87 -3 -30 -7 -93 -7 -139 -1 -46 -6 -135 -13 -198 l-12 -114
-35 -28 -36 -28 -74 -17 c-41 -10 -153 -47 -248 -82 l-174 -63 -62 -43 -62
-44 -7 -69 c-5 -39 -9 -174 -10 -301 l-3 -231 14 -25 c29 -55 128 -75 446 -88
198 -8 306 -23 340 -46 11 -8 26 -14 35 -14 l15 0 59 -223 c33 -122 61 -227
63 -232 2 -6 -31 -51 -73 -100 -133 -158 -236 -332 -298 -504 l-27 -75 10 -64
10 -64 72 -142 c80 -159 103 -189 174 -221 l50 -23 90 -11 c50 -6 110 -15 135
-20 137 -30 354 12 695 136 l80 29 73 -88 c41 -48 77 -88 82 -88 4 0 15 -21
24 -46 l16 -46 -20 -152 c-10 -83 -22 -224 -26 -312 l-7 -162 22 -70 21 -70
32 -27 c62 -53 313 -155 379 -155 14 0 78 -16 143 -35 137 -40 168 -43 203
-15 14 11 31 20 38 20 7 0 32 26 57 58 25 32 77 92 115 134 38 41 91 113 117
158 l48 84 72 70 c39 40 87 81 107 94 l36 22 104 0 c57 0 115 -3 128 -7 l23
-6 -5 -66 c-2 -36 0 -106 4 -154 l9 -88 32 -96 31 -96 48 -71 c26 -39 61 -89
76 -111 l28 -40 75 -37 c179 -87 312 -112 485 -90 44 6 134 16 200 22 160 15
156 14 199 57 51 51 61 73 80 175 l16 87 7 307 6 306 16 5 c9 3 70 30 136 60
l121 54 40 -15 c23 -8 59 -23 81 -35 42 -21 253 -196 253 -209 0 -4 -7 -70
-15 -147 -8 -77 -15 -165 -15 -196 l0 -56 49 -81 c59 -99 132 -192 227 -292
39 -41 101 -113 139 -160 37 -47 85 -103 105 -125 20 -22 61 -75 90 -118 29
-42 96 -123 149 -180 53 -56 117 -127 143 -157 151 -176 635 -632 863 -815 34
-27 102 -86 151 -130 226 -203 638 -475 722 -475 5 0 15 -7 22 -15 l12 -15 44
0 43 0 103 36 c592 209 1018 627 1254 1230 24 62 44 128 44 146 l0 34 -27 52
c-47 86 -167 243 -285 371 -106 114 -198 221 -290 336 -192 242 -462 529 -668
710 -154 135 -412 392 -462 460 -39 53 -181 194 -261 259 -27 21 -71 67 -99
103 -28 35 -76 82 -107 103 -31 21 -96 73 -146 115 -93 79 -171 125 -215 125
-14 0 -43 9 -65 19 -64 29 -297 45 -381 27 l-30 -7 -27 85 -28 84 7 38 6 39
31 36 32 36 100 -13 c55 -8 138 -20 185 -29 147 -26 279 -38 379 -32 l96 5 32
16 32 17 16 47 c10 26 21 56 25 67 27 67 49 296 36 369 l-7 37 -37 41 c-89 99
-424 367 -487 389 l-35 13 0 51 c0 27 9 122 20 209 11 88 20 197 20 242 l0 83
48 27 c26 15 70 41 97 59 28 18 62 36 75 40 14 4 43 17 65 29 22 13 87 44 145
71 58 26 138 63 178 81 41 19 82 34 92 34 10 0 26 8 35 17 l17 17 -5 50 c-6
54 -37 162 -81 284 -15 40 -30 96 -33 123 l-6 50 -38 59 c-21 32 -50 65 -66
73 l-28 15 -260 17 c-143 10 -269 21 -280 27 -21 9 -37 37 -196 344 l-99 192
67 53 c173 136 302 282 348 396 12 28 26 58 32 65 5 7 15 28 22 47 l11 35 -10
10 c-5 5 -10 22 -10 37 l0 28 -62 78 c-54 69 -91 112 -208 241 -17 18 -30 39
-30 47 0 17 2 17 -92 20 -70 2 -223 -16 -260 -30 l-18 -7 0 11 c0 17 -39 13
-74 -8 -17 -11 -56 -24 -86 -29 -30 -6 -75 -18 -100 -26 -46 -17 -222 -56
-250 -56 -17 0 -315 286 -316 304 0 6 3 16 7 21 11 15 40 149 49 225 4 36 23
119 43 186 20 67 41 148 48 180 l12 60 -7 27 c-13 54 -77 92 -247 150 -74 25
-147 50 -164 56 -16 6 -77 22 -135 36 -58 15 -118 31 -135 36 -16 5 -60 13
-96 16 l-66 6 -54 -53 c-30 -28 -76 -80 -104 -116 -27 -35 -86 -105 -129 -156
-43 -51 -115 -144 -158 -205 l-80 -113 -20 0 c-45 0 -157 33 -204 60 l-51 29
-67 137 c-37 75 -72 159 -78 188 -6 28 -25 89 -44 136 -18 47 -44 127 -59 179
-14 52 -37 116 -51 142 l-24 49 -163 -1 c-89 -1 -191 -5 -227 -10z m347 -397
c56 -119 107 -237 113 -262 7 -25 27 -78 46 -118 l35 -72 59 -64 59 -63 58
-31 c32 -16 86 -37 119 -46 l62 -16 103 0 c121 0 263 17 299 35 34 17 156 164
260 313 47 67 88 122 91 122 3 0 39 24 78 53 l72 53 87 -22 c117 -29 211 -61
258 -88 l39 -22 -1 -29 c0 -17 -6 -50 -12 -75 -6 -25 -20 -97 -32 -160 -33
-181 -71 -344 -81 -355 -5 -5 -9 -19 -9 -32 l0 -23 54 -69 c68 -89 92 -116
196 -220 l85 -86 53 -28 53 -29 62 -9 62 -9 85 11 c47 5 135 23 195 39 102 27
253 53 368 63 l47 5 37 -62 c20 -33 61 -96 91 -138 l53 -78 -83 -102 c-46 -56
-95 -119 -109 -141 -15 -21 -56 -63 -93 -93 l-66 -55 -35 -71 -34 -71 19 -46
c10 -25 39 -98 63 -161 176 -451 191 -487 216 -495 9 -2 68 -11 131 -19 63 -9
149 -22 190 -31 96 -20 188 -33 271 -41 l66 -5 20 -47 c12 -26 29 -74 38 -107
10 -33 30 -89 46 -124 16 -35 29 -67 29 -71 0 -8 -35 -24 -150 -68 -41 -17
-140 -60 -220 -97 -80 -37 -166 -75 -191 -85 -73 -29 -119 -60 -135 -91 l-15
-29 -9 -193 c-11 -201 -19 -277 -46 -417 -21 -108 -20 -128 10 -187 l24 -48
94 -91 c71 -70 334 -301 379 -334 3 -3 -4 -66 -17 -140 -13 -74 -24 -136 -24
-137 -1 -9 -146 0 -330 21 -118 14 -260 28 -315 32 l-101 6 -99 -93 c-158
-149 -304 -320 -352 -412 l-15 -30 5 -33 c3 -18 38 -97 77 -174 72 -144 156
-356 166 -420 l5 -35 -169 -169 -170 -169 -44 17 c-23 10 -81 46 -128 80 -47
34 -121 83 -165 110 -44 26 -117 78 -163 117 l-83 69 -59 0 -60 0 -62 -24
c-35 -13 -146 -64 -248 -113 -102 -50 -197 -93 -212 -97 l-28 -6 -15 -30 -15
-29 0 -329 c0 -181 -4 -342 -9 -358 -5 -16 -14 -48 -20 -71 l-12 -43 -42 6
-42 6 -89 -16 -89 -15 -64 56 c-177 156 -301 399 -305 601 l-2 73 -12 17 -12
16 -118 7 c-66 5 -137 13 -159 18 -56 14 -328 25 -407 17 l-66 -7 -58 -36 -59
-35 -52 -60 c-29 -33 -85 -108 -125 -166 -39 -59 -99 -141 -132 -182 -34 -41
-70 -88 -81 -103 l-20 -28 -23 -2 c-12 0 -71 23 -131 53 l-108 55 -17 85 c-24
128 -26 202 -6 340 27 184 41 264 50 275 11 13 15 144 6 172 l-7 23 -27 6
c-59 15 -164 79 -412 254 -51 36 -102 71 -114 78 l-21 13 -205 -76 c-113 -42
-245 -88 -295 -101 -49 -14 -119 -35 -155 -46 -36 -11 -90 -22 -120 -24 l-55
-5 -34 53 c-19 29 -60 97 -92 150 l-58 97 56 88 c31 48 80 127 110 176 31 48
65 94 77 102 11 9 21 19 21 23 0 14 58 82 70 82 7 0 29 24 49 53 20 28 56 80
80 115 l44 63 -29 109 c-28 105 -84 269 -148 436 l-32 81 -117 21 c-219 40
-237 43 -347 52 -126 10 -416 47 -422 54 -3 2 -8 92 -11 199 l-7 195 50 25
c126 62 389 137 550 157 139 17 130 3 145 225 6 88 19 221 30 295 10 74 22
162 26 195 3 33 15 88 26 123 l19 63 -6 30 -7 30 -71 47 c-40 27 -122 79 -184
116 -133 80 -203 136 -302 246 l-74 81 25 72 c44 127 65 174 92 210 14 18 26
39 26 44 l0 11 82 7 c119 10 261 7 367 -9 l92 -14 87 -55 c124 -77 192 -100
192 -64 0 7 37 50 81 97 45 47 114 126 154 175 75 94 169 187 220 221 16 10
40 29 53 41 l23 22 -3 33 c-2 18 -23 70 -46 115 -23 46 -42 90 -42 98 0 9 -13
28 -28 43 -26 24 -144 208 -185 289 -15 29 -56 175 -71 252 l-6 33 66 68 c36
38 83 80 104 95 l38 26 63 -26 c135 -54 344 -197 562 -382 l99 -83 23 0 c12 0
39 14 60 30 21 17 46 30 55 30 10 0 61 13 113 29 53 17 124 35 158 41 l61 11
77 40 c86 46 121 79 121 115 0 14 5 34 11 45 l10 20 4 172 4 172 15 80 c16 83
37 171 64 267 l16 56 56 11 c86 17 100 18 190 19 l85 1 102 -217z m-648 -16
l-21 -81 -5 -222 -5 -221 -71 -46 c-39 -25 -80 -46 -92 -46 l-23 0 -16 65 -16
64 0 274 0 275 128 54 127 55 8 -44 8 -45 -22 -82z m1913 -4 l18 -7 -86 -95
c-47 -52 -119 -135 -159 -185 -41 -49 -89 -107 -107 -127 l-33 -38 -60 -15
c-32 -8 -63 -15 -68 -15 -17 0 220 302 332 422 l53 57 42 4 c22 2 43 4 46 5 3
0 13 -3 22 -6z m-3536 -747 c27 -114 128 -326 241 -507 l23 -38 0 -65 c0 -36
-4 -65 -9 -65 -12 0 -204 40 -207 43 -8 8 -71 155 -105 243 l-38 102 -36 178
c-19 98 -35 182 -35 186 0 7 73 16 120 14 l25 -1 21 -90z m169 -740 l40 -7
-40 -31 c-74 -57 -179 -179 -256 -296 l-15 -24 -47 32 c-26 17 -70 43 -98 56
l-52 24 109 112 c60 61 126 124 146 139 l36 27 69 -13 c37 -7 86 -16 108 -19z
m-1271 -532 l-36 -98 5 -62 5 -63 -79 0 -78 0 13 43 c8 23 39 95 71 160 l57
117 38 0 39 0 -35 -97z m24 -348 c13 -18 63 -71 111 -117 l86 -83 147 -94 c81
-52 146 -96 144 -99 -2 -2 -25 -10 -50 -17 l-47 -14 -5 13 c-8 20 -99 79 -195
125 l-85 41 -59 53 c-32 28 -89 88 -127 132 l-68 80 42 6 c24 3 52 7 63 7 l20
2 23 -35z m495 -509 c5 -13 -10 -567 -16 -572 -4 -4 -128 23 -134 30 -5 5 35
518 43 544 l3 12 50 0 49 0 5 -14z m-138 -619 l49 -13 -64 -18 c-117 -32 -390
-123 -529 -176 l-73 -28 -22 8 -21 9 14 0 c8 1 22 7 30 14 9 8 43 24 76 36 33
13 85 33 115 46 30 13 118 44 195 70 77 26 144 51 150 56 12 12 20 11 80 -4z
m-670 -321 l40 -17 -3 -109 c-2 -59 1 -148 7 -196 6 -48 10 -88 8 -89 -1 -1
-38 5 -81 13 l-79 15 7 194 c4 107 10 201 12 208 l6 14 21 -9 c12 -4 40 -15
62 -24z m946 -682 l57 -7 6 -36 c3 -20 37 -132 74 -248 38 -117 67 -213 63
-213 -3 0 -43 12 -89 26 l-83 27 -25 42 c-20 34 -129 318 -158 411 l-6 20 52
-8 c29 -4 78 -11 109 -14z m26 -590 c99 -33 102 -36 55 -67 -63 -41 -236 -282
-308 -430 l-28 -57 -76 0 c-41 0 -81 4 -89 9 l-14 9 23 59 c31 79 75 156 129
228 87 117 97 130 120 167 18 31 96 108 108 108 1 0 38 -12 80 -26z m5357
-374 c16 -34 46 -80 66 -103 l38 -42 157 -2 c87 -1 162 -6 166 -10 l9 -9 -77
-132 c-84 -143 -225 -346 -297 -427 l-45 -50 6 23 5 23 -20 57 c-11 31 -30 98
-41 147 -26 106 -46 163 -114 307 l-50 107 78 85 c93 102 84 100 119 26z
m-5658 -276 l22 -4 4 -53 4 -53 32 -67 31 -67 -44 0 -45 0 -60 126 c-33 69
-60 127 -60 129 0 5 76 -3 116 -11z m1429 -381 c38 -25 81 -53 95 -63 14 -9
35 -20 48 -24 27 -9 26 -2 3 -117 -20 -98 -38 -231 -48 -362 l-6 -77 13 -105
12 -105 -12 -15 -12 -14 -41 21 c-23 12 -64 27 -92 33 l-50 11 -14 29 -14 29
1 196 c1 198 17 390 33 401 l9 5 -11 55 c-6 30 -11 60 -12 68 0 17 -54 95
-125 185 l-52 66 102 -86 c57 -47 134 -106 173 -131z m3193 -197 c20 -13 56
-38 79 -57 23 -19 61 -47 85 -62 24 -15 98 -65 165 -111 67 -46 147 -94 178
-107 30 -13 55 -27 55 -32 0 -8 -219 -153 -304 -202 l-49 -28 7 79 c3 44 9
122 13 175 l6 97 -21 30 c-22 30 -272 202 -294 202 -10 0 29 39 40 40 1 0 19
-11 40 -24z m962 -19 c0 -1 -44 -45 -97 -97 l-98 -95 95 98 c88 90 100 102
100 94z m-2562 -314 l72 -6 0 -51 c0 -66 23 -173 48 -222 62 -126 169 -324
190 -351 l24 -33 -41 0 -42 0 -80 31 -80 31 -33 33 c-92 92 -208 477 -172 571
l6 16 18 -7 c9 -4 50 -9 90 -12z" />
    <path d="M3900 8729 c-1338 -134 -2351 -1207 -2397 -2539 l-6 -175 12 -135
c57 -640 321 -1204 775 -1655 l131 -130 120 -91 c1721 -1293 4152 -144 4242
2006 l6 145 -12 138 c-106 1260 -1026 2240 -2273 2422 l-103 15 -200 5 c-110
2 -243 -1 -295 -6z m405 -139 c1325 -95 2330 -1176 2327 -2505 l0 -190 -21
-142 c-167 -1124 -1025 -1972 -2156 -2130 l-110 -15 -210 -1 -210 0 -143 22
c-1115 169 -1957 1022 -2118 2146 l-17 120 -1 200 0 200 12 95 c22 166 61 337
112 493 l50 152 79 160 c420 853 1247 1376 2216 1403 28 1 113 -3 190 -8z" />
    <path d="M3770 8214 c-939 -127 -1661 -830 -1827 -1779 l-17 -100 0 -230 0
-230 17 -100 c166 -948 893 -1658 1822 -1780 l116 -15 164 0 164 0 115 15
c1062 139 1849 1040 1847 2115 l0 165 -16 114 c-136 963 -877 1696 -1845 1827
l-105 14 -165 -1 c-91 -1 -212 -7 -270 -15z m470 -134 c1649 -171 2382 -2168
1231 -3354 -1144 -1177 -3111 -551 -3387 1079 l-17 100 0 200 0 200 17 100
c94 554 392 1027 841 1334 293 200 571 299 970 345 66 7 256 5 345 -4z" />
  </g>
  <g transform="translate(0.000000,1036.000000) scale(0.100000,-0.100000)" fill="#545454" stroke="none">
    <path d="M5080 9225 c-17 -25 -27 -45 -23 -45 5 0 14 10 22 23 8 12 21 32 29
45 27 42 3 22 -28 -23z" />
    <path d="M5928 6735 c8 -25 17 -44 19 -41 6 6 -19 86 -27 86 -4 0 -1 -20 8
-45z" />
    <path d="M4672 4223 c-24 -9 -41 -17 -39 -20 8 -7 87 19 87 29 0 4 -1 7 -2 7
-2 -1 -22 -8 -46 -16z" />
    <path d="M6481 4139 c-45 -50 -81 -94 -79 -97 2 -4 22 -43 44 -87 57 -113 100
-225 125 -330 11 -49 30 -115 40 -145 l20 -55 -8 -23 c-8 -22 -410 -412 -425
-412 -4 0 -8 -7 -8 -15 0 -23 7 -19 84 42 266 213 525 521 717 849 l80 137
-11 7 c-17 10 -206 20 -269 14 l-53 -5 -42 43 c-22 24 -54 71 -71 106 l-29 62
-17 0 c-9 0 -53 -41 -98 -91z" />
    <path d="M5503 3323 c-23 -16 -31 -43 -13 -43 21 0 271 -174 292 -202 l21 -30
-13 -174 c-7 -96 -11 -176 -9 -179 13 -12 374 221 374 241 0 7 -38 32 -85 56
-47 24 -132 77 -190 118 -58 40 -120 83 -138 94 -18 12 -52 36 -75 55 -99 80
-127 91 -164 64z" />
  </g>
  <g transform="translate(0.000000,1036.000000) scale(0.100000,-0.100000)" fill="#090909" stroke="none">
    <path d="M5215 9600 c-16 -16 -26 -32 -24 -35 3 -3 18 9 34 25 16 16 26 32 24
35 -3 3 -18 -9 -34 -25z" />
    <path d="M1710 8755 c0 -13 42 -86 46 -82 6 5 -33 87 -41 87 -3 0 -5 -2 -5 -5z" />
    <path d="M7047 8510 c15 -22 30 -40 35 -40 5 0 -4 18 -18 40 -15 22 -30 40
-35 40 -4 0 4 -18 18 -40z" />
    <path d="M3007 8339 c-22 -11 -37 -23 -34 -25 5 -6 87 33 87 41 0 9 -14 4 -53
-16z" />
    <path d="M2667 8293 c-20 -14 -35 -28 -33 -30 4 -4 86 46 86 53 0 9 -17 1 -53
-23z" />
    <path d="M2270 7965 c-18 -19 -31 -37 -29 -40 3 -2 23 13 44 35 22 22 35 40
29 40 -6 0 -25 -16 -44 -35z" />
    <path d="M5090 7796 c0 -6 112 -77 116 -73 2 2 -20 20 -51 40 -52 35 -65 42
-65 33z" />
    <path d="M2266 7270 c-14 -22 -23 -40 -19 -40 10 0 56 70 50 76 -2 2 -16 -14
-31 -36z" />
    <path d="M1895 7220 c-14 -29 -24 -54 -21 -57 2 -3 17 18 31 47 14 29 24 54
21 57 -2 3 -17 -18 -31 -47z" />
    <path d="M5920 7095 c0 -13 42 -86 46 -82 6 5 -33 87 -41 87 -3 0 -5 -2 -5 -5z" />
    <path d="M880 7006 c0 -6 112 -77 116 -73 2 2 -20 20 -51 40 -52 35 -65 42
-65 33z" />
    <path d="M7317 6043 c-20 -14 -35 -28 -33 -30 4 -4 86 46 86 53 0 9 -17 1 -53
-23z" />
    <path d="M7630 4975 c18 -19 36 -32 39 -30 6 7 -50 65 -63 65 -5 0 5 -16 24
-35z" />
    <path d="M2600 4734 c0 -13 58 -69 65 -63 2 3 -11 21 -30 39 -19 19 -35 29
-35 24z" />
    <path d="M1424 4667 c3 -11 9 -30 12 -43 3 -13 10 -24 15 -24 10 0 -9 61 -24
75 l-10 10 7 -18z" />
    <path d="M1156 4284 c-21 -31 -36 -58 -33 -60 2 -2 21 21 41 52 21 31 36 58
33 60 -2 2 -21 -21 -41 -52z" />
    <path d="M2220 4294 c0 -13 98 -109 105 -103 2 3 -20 30 -50 59 -30 30 -55 50
-55 44z" />
    <path d="M4986 4209 c-32 -17 -56 -33 -53 -35 5 -6 127 53 127 61 0 9 -15 4
-74 -26z" />
    <path d="M2630 3936 c0 -7 82 -57 86 -53 2 2 -14 16 -36 31 -38 25 -50 30 -50
22z" />
    <path d="M2960 3892 c0 -10 111 -65 117 -58 3 3 -22 19 -56 35 -34 17 -61 28
-61 23z" />
    <path d="M830 3885 c0 -13 52 -107 56 -102 6 5 -43 107 -51 107 -3 0 -5 -2 -5
-5z" />
    <path d="M5257 3869 c-22 -11 -37 -23 -34 -25 5 -6 87 33 87 41 0 9 -14 4 -53
-16z" />
    <path d="M2061 3859 c-13 -5 -21 -12 -18 -15 3 -3 15 -1 26 6 l21 11 19 -11
c29 -15 39 -12 17 5 -23 17 -31 18 -65 4z" />
    <path d="M5297 3384 c-27 -14 -47 -28 -44 -30 5 -6 107 43 107 51 0 9 -15 4
-63 -21z" />
    <path d="M6355 3250 c-16 -16 -24 -30 -19 -30 6 0 23 14 39 30 16 17 24 30 19
30 -6 0 -23 -13 -39 -30z" />
    <path d="M6357 3132 l-37 -38 24 1 c14 0 31 6 38 14 l13 13 -25 -12 -25 -13
21 24 c49 56 43 64 -9 11z" />
    <path d="M6260 3046 l-12 -15 29 3 c39 5 40 5 23 16 -20 13 -26 12 -40 -4z" />
    <path d="M3277 3012 c-38 -40 -34 -51 5 -13 17 17 29 33 27 36 -3 3 -18 -8
-32 -23z" />
    <path d="M2597 2893 c-11 -10 -8 -51 3 -58 l10 -6 0 35 c0 37 -2 41 -13 29z" />
    <path d="M2140 2635 c0 -14 47 -71 53 -65 3 3 -8 21 -24 40 -16 19 -29 30 -29
25z" />
    <path d="M3820 2514 c16 -40 31 -66 37 -61 5 5 -34 87 -42 87 -2 0 0 -12 5
-26z" />
    <path d="M4000 2433 c1 -22 76 -80 88 -69 3 3 0 6 -6 6 -6 0 -27 16 -47 35
-19 20 -35 32 -35 28z" />
    <path d="M4260 2384 c0 -3 11 -20 25 -38 14 -18 22 -36 18 -39 -3 -4 -1 -7 5
-7 17 0 15 5 -14 50 -25 38 -34 47 -34 34z" />
    <path d="M6810 1193 c0 -12 58 -68 64 -62 3 2 -11 20 -30 38 -19 19 -34 30
-34 24z" />
  </g>
  <g transform="translate(0.000000,1036.000000) scale(0.100000,-0.100000)" fill="#ececec" stroke="none">
    <path d="M1710 8757 c0 -13 51 -109 56 -105 2 3 -9 29 -26 59 -16 30 -30 50
-30 46z" />
    <path d="M1356 8020 c-36 -55 -33 -63 5 -12 17 24 29 45 27 48 -3 2 -17 -14
-32 -36z" />
    <path d="M1770 8035 c-13 -14 -21 -27 -18 -30 2 -3 17 9 33 25 16 17 24 30 19
30 -6 0 -21 -11 -34 -25z" />
    <path d="M5900 7865 c18 -19 36 -32 39 -30 6 7 -50 65 -63 65 -5 0 5 -16 24
-35z" />
    <path d="M685 7880 l-80 -6 75 -2 c41 -1 82 3 90 8 8 5 11 9 5 8 -5 -1 -46 -5
-90 -8z" />
    <path d="M2922 7753 c-29 -20 -50 -38 -48 -40 4 -4 116 67 116 73 0 9 -19 0
-68 -33z" />
    <path d="M1500 7634 c0 -8 71 -36 77 -30 3 3 -12 12 -32 20 -41 18 -45 18 -45
10z" />
    <path d="M5545 7600 c21 -22 41 -37 44 -35 6 7 -60 75 -73 75 -6 0 7 -18 29
-40z" />
    <path d="M6300 7605 c0 -10 53 -85 57 -81 3 2 -8 23 -23 45 -25 39 -34 48 -34
36z" />
    <path d="M5706 7190 c15 -22 29 -38 31 -36 6 6 -40 76 -50 76 -4 0 5 -18 19
-40z" />
    <path d="M5912 7113 c2 -5 17 -34 32 -66 15 -32 30 -56 33 -54 5 6 -55 127
-63 127 -3 0 -4 -3 -2 -7z" />
    <path d="M7655 6399 c-27 -10 -37 -17 -21 -14 31 7 97 33 81 33 -5 0 -32 -8
-60 -19z" />
    <path d="M1750 4976 c0 -13 61 -128 66 -123 2 2 -9 31 -26 63 -33 61 -40 72
-40 60z" />
    <path d="M2250 4965 c0 -10 53 -85 57 -81 3 2 -8 23 -23 45 -25 39 -34 48 -34
36z" />
    <path d="M5440 4695 c-19 -19 -29 -35 -24 -35 13 0 69 58 63 65 -3 2 -21 -11
-39 -30z" />
    <path d="M6326 4639 c-15 -22 -26 -43 -23 -45 2 -2 16 14 31 37 15 22 26 43
23 45 -2 2 -16 -14 -31 -37z" />
    <path d="M5895 4330 c-27 -28 -45 -50 -39 -50 13 0 99 88 93 95 -3 2 -27 -18
-54 -45z" />
    <path d="M5033 2935 c0 -44 2 -61 4 -37 2 23 2 59 0 80 -2 20 -4 1 -4 -43z" />
  </g>
  <g transform="translate(0.000000,1036.000000) scale(0.100000,-0.100000)" fill="#dfdfdf" stroke="none">
    <path d="M2666 9010 c26 -27 50 -47 53 -44 6 6 -80 94 -92 94 -5 0 12 -22 39
-50z" />
    <path d="M6066 8490 c16 -16 33 -30 38 -30 6 0 -3 14 -19 30 -16 17 -33 30
-39 30 -5 0 4 -13 20 -30z" />
    <path d="M5995 7960 c21 -22 41 -37 44 -35 6 7 -60 75 -73 75 -6 0 7 -18 29
-40z" />
    <path d="M910 6988 c0 -8 112 -80 116 -75 3 3 -10 13 -29 24 -19 11 -46 28
-60 38 -15 9 -27 15 -27 13z" />
    <path d="M1370 4827 c0 -12 34 -104 41 -112 5 -5 0 19 -12 53 -17 51 -29 75
-29 59z" />
    <path d="M5541 4605 c-24 -25 -39 -45 -34 -45 12 0 88 78 82 85 -3 2 -25 -16
-48 -40z" />
    <path d="M5248 3864 c-27 -13 -48 -27 -48 -29 0 -5 99 42 109 51 13 11 -20 0
-61 -22z" />
    <path d="M5031 3053 c1 -62 6 -56 11 15 2 23 0 42 -4 42 -5 0 -7 -26 -7 -57z" />
    <path d="M9285 520 c-16 -17 -24 -30 -19 -30 13 0 59 48 52 55 -2 3 -17 -9
-33 -25z" />
  </g>
  <g transform="translate(0.000000,1036.000000) scale(0.100000,-0.100000)" fill="#121212" stroke="none">
    <path d="M5445 7511 c22 -22 42 -37 44 -35 7 6 -61 74 -73 74 -6 0 7 -18 29
-39z" />
    <path d="M6230 3015 l-23 -24 23 4 c13 3 28 9 34 15 l11 11 -20 -6 -20 -7 19
16 c11 9 15 16 10 16 -6 0 -21 -11 -34 -25z" />
    <path d="M9380 1995 c1 -14 90 -102 90 -89 0 5 -20 30 -45 54 -25 24 -45 40
-45 35z" />
  </g>
  <g transform="translate(0.000000,1036.000000) scale(0.100000,-0.100000)" fill="#464646" stroke="none" />
  <g transform="translate(0.000000,1036.000000) scale(0.100000,-0.100000)" fill="#3a3a3a" stroke="none">
    <path d="M6880 7466 c0 -11 50 -106 55 -106 3 0 -7 24 -21 53 -28 55 -34 65
-34 53z" />
  </g>
  <g transform="translate(0.000000,1036.000000) scale(0.100000,-0.100000)" fill="#d2d2d2" stroke="none">
    <path d="M3041 9633 c2 -70 6 -63 11 20 2 26 0 47 -4 47 -5 0 -7 -30 -7 -67z" />
    <path d="M3044 9360 c0 -113 2 -159 3 -102 2 56 2 148 0 205 -1 56 -3 10 -3
-103z" />
    <path d="M5992 4234 c-18 -19 -29 -34 -24 -34 11 0 67 59 61 64 -2 3 -19 -11
-37 -30z" />
  </g>
  <g transform="translate(0.000000,1036.000000) scale(0.100000,-0.100000)" fill="#878787" stroke="none">
    <path d="M4118 8733 c17 -2 47 -2 65 0 17 2 3 4 -33 4 -36 0 -50 -2 -32 -4z" />
  </g>
  <g transform="translate(0.000000,1036.000000) scale(0.100000,-0.100000)" fill="#191919" stroke="none" />
  <g transform="translate(0.000000,1036.000000) scale(0.100000,-0.100000)" fill="#b3b3b3" stroke="none" />
  <g transform="translate(0.000000,1036.000000) scale(0.100000,-0.100000)" fill="#9f9f9f" stroke="none">
    <path d="M6033 6105 c0 -33 2 -45 4 -27 2 18 2 45 0 60 -2 15 -4 0 -4 -33z" />
  </g>
  <g transform="translate(0.000000,1036.000000) scale(0.100000,-0.100000)" fill="#5b5b5b" stroke="none">
    <path d="M6467 4092 c-45 -46 -50 -68 -6 -26 28 26 55 64 46 64 -1 0 -20 -17
-40 -38z" />
  </g>
  <g transform="translate(0.000000,1036.000000) scale(0.100000,-0.100000)" fill="#2b2b2b" stroke="none" />
  <g transform="translate(0.000000,1036.000000) scale(0.100000,-0.100000)" fill="#bfbfbf" stroke="none">
    <path d="M433 7373 c26 -2 67 -2 90 0 23 2 2 3 -48 3 -49 0 -68 -1 -42 -3z" />
  </g>
  <g transform="translate(0.000000,1036.000000) scale(0.100000,-0.100000)" fill="#212121" stroke="none" />
  <g transform="translate(0.000000,1036.000000) scale(0.100000,-0.100000)" fill="#939393" stroke="none" />
  <g transform="translate(0.000000,1036.000000) scale(0.100000,-0.100000)" fill="#cacaca" stroke="none" />
  <g transform="translate(0.000000,1036.000000) scale(0.100000,-0.100000)" fill="#717171" stroke="none">
    <path d="M2873 9650 c0 -36 2 -50 4 -32 2 17 2 47 0 65 -2 17 -4 3 -4 -33z" />
  </g>
  <g transform="translate(0.000000,1036.000000) scale(0.100000,-0.100000)" fill="#7b7b7b" stroke="none" />
  <g transform="translate(0.000000,1036.000000) scale(0.100000,-0.100000)" fill="#686868" stroke="none" />
  <g transform="translate(0.000000,1036.000000) scale(0.100000,-0.100000)" fill="#323232" stroke="none" />
  <g transform="translate(0.000000,1036.000000) scale(0.100000,-0.100000)" fill="#a9a9a9" stroke="none" />
</svg>